<svg width="800" height="400" viewBox="0 0 800 400" xmlns="http://www.w3.org/2000/svg">
    <rect x="0" y="0" width="800" height="400" fill="#fff" />
    <path fill="black" d="M293.3 191.7L286.1 191.7L286.1 187.7L305.3 187.7L305.3 191.7L298.1 191.7L298.1 211.0L293.3 211.0L293.3 191.7ZM313.7 211.3L313.7 211.3Q311.0 211.3 309.1 210.2Q307.2 209.0 306.1 207.0Q305.1 205.0 305.1 202.3L305.1 202.3Q305.1 199.6 306.1 197.6Q307.2 195.5 309.1 194.4Q311.0 193.3 313.7 193.3L313.7 193.3Q316.3 193.3 318.2 194.4Q320.2 195.5 321.2 197.6Q322.3 199.6 322.3 202.3L322.3 202.3Q322.3 205.0 321.2 207.0Q320.2 209.0 318.2 210.2Q316.3 211.3 313.7 211.3ZM313.7 207.5L313.7 207.5Q314.9 207.5 315.7 206.9Q316.5 206.2 316.9 205.0Q317.3 203.8 317.3 202.3L317.3 202.3Q317.3 200.7 316.9 199.5Q316.5 198.3 315.7 197.7Q314.9 197.0 313.7 197.0L313.7 197.0Q312.5 197.0 311.6 197.7Q310.8 198.3 310.4 199.5Q310.0 200.7 310.0 202.3L310.0 202.3Q310.0 203.8 310.4 205.0Q310.8 206.2 311.6 206.9Q312.5 207.5 313.7 207.5ZM330.2 200.9L330.2 200.9L330.2 211.0L325.4 211.0L325.4 193.5L330.0 193.5L330.0 196.6L330.2 196.6Q330.8 195.1 332.2 194.2Q333.5 193.3 335.5 193.3L335.5 193.3Q337.3 193.3 338.6 194.1Q340.0 194.9 340.7 196.3Q341.5 197.8 341.5 199.8L341.5 199.8L341.5 211.0L336.7 211.0L336.7 200.7Q336.7 199.1 335.8 198.2Q335.0 197.3 333.6 197.3L333.6 197.3Q332.6 197.3 331.8 197.7Q331.1 198.1 330.7 198.9Q330.3 199.7 330.2 200.9ZM347.7 217.5L347.7 217.5Q346.7 217.5 345.9 217.4Q345.1 217.2 344.6 217.0L344.6 217.0L345.7 213.4Q346.6 213.6 347.2 213.7Q347.9 213.7 348.4 213.3Q348.9 213.0 349.3 212.2L349.3 212.2L349.5 211.5L343.3 193.5L348.4 193.5L352.0 206.3L352.2 206.3L355.8 193.5L360.9 193.5L354.2 212.8Q353.7 214.2 352.8 215.3Q352.0 216.3 350.7 216.9Q349.5 217.5 347.7 217.5Z M377.2 191.7L370.0 191.7L370.0 187.7L389.2 187.7L389.2 191.7L382.0 191.7L382.0 211.0L377.2 211.0L377.2 191.7ZM394.8 211.3L394.8 211.3Q393.2 211.3 391.9 210.7Q390.6 210.1 389.8 209.0Q389.0 207.8 389.0 206.1L389.0 206.1Q389.0 204.6 389.6 203.6Q390.1 202.6 391.0 202.0Q392.0 201.4 393.1 201.1Q394.3 200.8 395.6 200.7L395.6 200.7Q397.1 200.5 398.1 200.4Q399.0 200.3 399.4 200.0Q399.8 199.7 399.8 199.1L399.8 199.1L399.8 199.1Q399.8 198.0 399.2 197.4Q398.5 196.8 397.2 196.8L397.2 196.8Q395.9 196.8 395.2 197.4Q394.4 198.0 394.1 198.8L394.1 198.8L389.7 198.5Q390 196.9 391 195.7Q392 194.5 393.6 193.9Q395.2 193.3 397.3 193.3L397.3 193.3Q398.7 193.3 400.1 193.6Q401.4 194.0 402.4 194.7Q403.5 195.4 404.1 196.5Q404.7 197.6 404.7 199.2L404.7 199.2L404.7 211.0L400.1 211.0L400.1 208.5L399.9 208.5Q399.5 209.3 398.8 210.0Q398.1 210.6 397.1 210.9Q396.1 211.3 394.8 211.3ZM396.2 207.9L396.2 207.9Q397.3 207.9 398.1 207.5Q398.9 207.1 399.4 206.4Q399.9 205.6 399.9 204.7L399.9 204.7L399.9 202.9Q399.6 203.0 399.2 203.1Q398.9 203.2 398.4 203.3Q397.9 203.4 397.4 203.5Q396.9 203.6 396.5 203.6L396.5 203.6Q395.6 203.8 395.0 204.0Q394.4 204.3 394.0 204.8Q393.7 205.2 393.7 205.9L393.7 205.9Q393.7 206.9 394.4 207.4Q395.1 207.9 396.2 207.9ZM413.3 200.9L413.3 200.9L413.3 211.0L408.4 211.0L408.4 193.5L413.0 193.5L413.0 196.6L413.3 196.6Q413.8 195.1 415.2 194.2Q416.6 193.3 418.5 193.3L418.5 193.3Q420.3 193.3 421.7 194.1Q423.0 194.9 423.8 196.3Q424.5 197.8 424.5 199.8L424.5 199.8L424.5 211.0L419.7 211.0L419.7 200.7Q419.7 199.1 418.9 198.2Q418.0 197.3 416.6 197.3L416.6 197.3Q415.6 197.3 414.9 197.7Q414.1 198.1 413.7 198.9Q413.3 199.7 413.3 200.9ZM436.2 217.9L436.2 217.9Q433.8 217.9 432.2 217.2Q430.5 216.6 429.5 215.5Q428.5 214.4 428.2 213.0L428.2 213.0L432.7 212.4Q432.9 212.9 433.3 213.4Q433.8 213.8 434.5 214.1Q435.3 214.4 436.3 214.4L436.3 214.4Q437.9 214.4 438.9 213.6Q439.9 212.8 439.9 211.1L439.9 211.1L439.9 207.9L439.7 207.9Q439.4 208.6 438.8 209.2Q438.1 209.9 437.1 210.3Q436.1 210.7 434.8 210.7L434.8 210.7Q432.8 210.7 431.2 209.8Q429.6 208.9 428.6 207.0Q427.7 205.1 427.7 202.2L427.7 202.2Q427.7 199.2 428.6 197.2Q429.6 195.2 431.2 194.3Q432.8 193.3 434.8 193.3L434.8 193.3Q436.2 193.3 437.2 193.8Q438.2 194.3 438.8 195.0Q439.4 195.7 439.7 196.4L439.7 196.4L439.9 196.4L439.9 193.5L444.7 193.5L444.7 211.1Q444.7 213.3 443.6 214.8Q442.5 216.3 440.6 217.1Q438.7 217.9 436.2 217.9ZM436.3 207.1L436.3 207.1Q437.5 207.1 438.3 206.5Q439.1 205.9 439.5 204.8Q440.0 203.7 440.0 202.2L440.0 202.2Q440.0 200.6 439.5 199.5Q439.1 198.4 438.3 197.7Q437.5 197.1 436.3 197.1L436.3 197.1Q435.1 197.1 434.3 197.8Q433.5 198.4 433.0 199.5Q432.6 200.7 432.6 202.2L432.6 202.2Q432.6 203.7 433.1 204.8Q433.5 205.9 434.3 206.5Q435.1 207.1 436.3 207.1Z M464.4 211.0L464.4 211.0L456.1 211.0L456.1 187.7L464.4 187.7Q467.9 187.7 470.5 189.1Q473.0 190.5 474.4 193.1Q475.7 195.7 475.7 199.3L475.7 199.3Q475.7 202.9 474.4 205.5Q473.0 208.2 470.4 209.6Q467.9 211.0 464.4 211.0ZM461.0 191.9L461.0 206.7L464.1 206.7Q466.3 206.7 467.8 206.0Q469.3 205.2 470.1 203.5Q470.8 201.9 470.8 199.3L470.8 199.3Q470.8 196.7 470.1 195.1Q469.3 193.4 467.8 192.7Q466.3 191.9 464.2 191.9L464.2 191.9L461.0 191.9ZM487.2 211.3L487.2 211.3Q484.5 211.3 482.6 210.2Q480.7 209.1 479.6 207.1Q478.6 205.1 478.6 202.3L478.6 202.3Q478.6 199.6 479.6 197.6Q480.7 195.5 482.6 194.4Q484.5 193.3 487.0 193.3L487.0 193.3Q488.8 193.3 490.3 193.8Q491.8 194.4 492.9 195.5Q494 196.6 494.6 198.2Q495.3 199.9 495.3 202.1L495.3 202.1L495.3 203.5L480.5 203.5L480.5 200.5L490.7 200.5Q490.7 199.4 490.2 198.6Q489.8 197.8 489.0 197.3Q488.2 196.9 487.1 196.9L487.1 196.9Q486.0 196.9 485.2 197.4Q484.3 197.9 483.9 198.7Q483.4 199.6 483.4 200.6L483.4 200.6L483.4 203.5Q483.4 204.8 483.8 205.7Q484.3 206.7 485.2 207.2Q486.1 207.7 487.3 207.7L487.3 207.7Q488.1 207.7 488.8 207.5Q489.5 207.2 489.9 206.8Q490.4 206.3 490.7 205.7L490.7 205.7L495.1 206.0Q494.8 207.6 493.8 208.8Q492.7 210.0 491.1 210.6Q489.4 211.3 487.2 211.3ZM509.1 193.5L514.2 193.5L508.1 211.0L502.6 211.0L496.5 193.5L501.6 193.5L505.3 206.0L505.5 206.0L509.1 193.5Z " />
</svg>